<!-- icon666.com - MILLIONS vector ICONS FREE --><svg viewBox="0 0 64 64" xmlns="http://www.w3.org/2000/svg" xmlns:xlink="http://www.w3.org/1999/xlink"><linearGradient id="linear-gradient" gradientUnits="userSpaceOnUse" x1="3.4" x2="60.6" y1="32" y2="32"><stop offset="0" stop-color="#fad602"></stop><stop offset=".16" stop-color="#f6bb08"></stop><stop offset=".56" stop-color="#ee7c17"></stop><stop offset=".85" stop-color="#e95420"></stop><stop offset="1" stop-color="#e74524"></stop></linearGradient><g id="Layer_49" data-name="Layer 49"><path d="m9.85 23.71a.61.61 0 0 1 .07-.85c7.08-5.86 14.46-8.86 22.08-8.86s15 3 22.08 8.88a.61.61 0 0 1 .07.85.6.6 0 0 1 -.46.21.64.64 0 0 1 -.39-.14c-6.8-5.71-14-8.6-21.3-8.6s-14.5 2.89-21.31 8.6a.6.6 0 0 1 -.84-.09zm43.45 16.51c-6.8 5.71-14 8.6-21.3 8.6s-14.5-2.89-21.31-8.6a.6.6 0 0 0 -.84.07.61.61 0 0 0 .07.85c7.08 5.86 14.46 8.86 22.08 8.86s15-3 22.08-8.88a.6.6 0 0 0 -.78-.92zm3.5-7.82c-7.67 8.68-16.25 13.27-24.8 13.27-8.55 0-17.13-4.59-24.8-13.27a.61.61 0 0 1 0-.8c7.68-8.68 16.25-13.27 24.8-13.27 8.55 0 17.13 4.59 24.8 13.27a.61.61 0 0 1 0 .8zm-1.25-.4c-7.35-8.16-15.48-12.47-23.55-12.47s-16.2 4.31-23.55 12.47c7.35 8.16 15.48 12.47 23.55 12.47s16.2-4.31 23.55-12.47zm-23.55 4.46a4.46 4.46 0 0 1 -4.46-4.46.6.6 0 0 0 -1.2 0 5.67 5.67 0 0 0 5.66 5.66.6.6 0 0 0 0-1.2zm9.33-4.46a9.33 9.33 0 1 1 -9.33-9.33.6.6 0 0 1 .6.6 8.26 8.26 0 0 0 .36 2.4 8.11 8.11 0 0 0 5.37 5.33 8.26 8.26 0 0 0 2.4.36.6.6 0 0 1 .6.64zm-1.22.58a9.85 9.85 0 0 1 -2.11-.39 9.38 9.38 0 0 1 -6.19-6.19 9.85 9.85 0 0 1 -.39-2.13 8.13 8.13 0 1 0 8.69 8.69zm20.49-.58a28.6 28.6 0 1 0 -28.6 28.6 28.63 28.63 0 0 0 28.6-28.6zm-1.2 0a27.4 27.4 0 1 1 -27.4-27.4 27.43 27.43 0 0 1 27.4 27.4z" fill="url(#linear-gradient)"></path></g></svg>